<svg width="56" height="56" viewBox="0 0 56 56" fill="none" xmlns="http://www.w3.org/2000/svg">
<path d="M28.2038 5.25049C15.5272 5.25049 5.25098 15.5268 5.25098 28.2033C5.25098 40.8799 15.5272 51.1562 28.2038 51.1562C40.8804 51.1562 51.1567 40.8799 51.1567 28.2033C51.1567 15.5268 40.8804 5.25049 28.2038 5.25049ZM41.2554 37.2344C41.1804 37.5495 41.0904 37.8645 40.9854 38.1796C40.8354 38.6596 40.5504 39.0497 40.1903 39.3797C39.6352 39.8748 38.9902 40.2798 38.3301 40.6099C37.715 40.9249 37.0699 41.1649 36.3798 41.2999C35.9448 41.39 35.4947 41.435 35.0297 41.435C34.3096 41.45 33.5895 41.2999 32.8844 41.1049C32.0743 40.8799 31.3092 40.5649 30.5291 40.2798C29.809 40.0248 29.1039 39.7548 28.4138 39.4247C27.4687 38.9747 26.5686 38.4196 25.7135 37.8195C24.7684 37.1444 23.8833 36.4093 23.0432 35.6292C22.2031 34.8642 21.408 34.0541 20.6429 33.2139C19.5177 31.9688 18.4826 30.6636 17.6275 29.2085C17.0424 28.2183 16.5924 27.1832 16.2173 26.1031C15.9773 25.443 15.7373 24.7979 15.4972 24.1378C15.3022 23.5828 15.1522 23.0127 15.0472 22.4276C15.0022 22.1876 14.9872 21.9326 14.9722 21.6925C14.9572 21.4675 14.9572 21.2575 14.9722 21.0324C14.9872 20.4924 15.0772 19.9823 15.2272 19.4722C15.5723 18.3021 16.1573 17.252 16.9374 16.2919C17.3725 15.7668 17.9275 15.4367 18.5726 15.2867C19.0227 15.1817 19.4877 15.0767 19.9528 14.9867C20.2228 14.9417 20.4929 14.9267 20.7779 14.9567C20.9279 14.9717 21.0329 15.0467 21.1379 15.1667C21.348 15.3917 21.498 15.6618 21.648 15.9168C22.2181 16.9519 22.8032 18.0021 23.3732 19.0522C23.5982 19.4722 23.8683 19.8473 24.1383 20.2523C24.2583 20.4324 24.3783 20.6274 24.4684 20.8374C24.6334 21.1825 24.6184 21.5275 24.3933 21.8425C24.1533 22.1726 23.8833 22.4576 23.5682 22.7277C23.1932 23.0577 22.7881 23.3577 22.4131 23.6728C22.0531 23.9728 21.693 24.2878 21.393 24.6629C21.378 24.6779 21.363 24.6929 21.348 24.7229C21.1679 24.9629 21.1379 25.218 21.228 25.503C21.333 25.833 21.498 26.1331 21.678 26.4181C22.0531 27.0332 22.4131 27.6783 22.8182 28.2933C23.9433 30.0186 25.3085 31.5037 26.9437 32.7639C27.7988 33.409 28.6839 33.994 29.614 34.5041C29.899 34.6691 30.1841 34.8492 30.4691 34.9992C30.6791 35.1042 30.9042 35.1942 31.1442 35.2242C31.2942 35.2542 31.4442 35.1942 31.5642 35.1192C31.8343 34.9692 32.0593 34.7441 32.2693 34.5041C32.6444 34.0541 33.0194 33.604 33.3795 33.1539C33.6945 32.7639 34.0395 32.3888 34.4296 32.0888C34.5646 31.9838 34.7296 31.8938 34.8946 31.8338C35.1497 31.7588 35.4047 31.8338 35.6447 31.9688C35.9298 32.1338 36.1998 32.3138 36.4698 32.4939C36.8899 32.7489 37.2949 33.0039 37.73 33.244C38.4951 33.679 39.2602 34.0841 40.0253 34.5191C40.2953 34.6691 40.5653 34.8191 40.8354 34.9692C40.9554 35.0442 41.0754 35.1342 41.1804 35.2242C41.3605 35.3592 41.4355 35.5542 41.4355 35.7643C41.4505 36.2893 41.3605 36.7694 41.2554 37.2344Z" fill="white"/>
<circle cx="28" cy="28" r="27" stroke="#EFA72D" stroke-width="2"/>
</svg>
