<?xml version="1.0" encoding="utf-8"?>
<!-- Generator: Adobe Illustrator 23.0.1, SVG Export Plug-In . SVG Version: 6.00 Build 0)  -->
<svg version="1.1" id="Layer_1" xmlns="http://www.w3.org/2000/svg" xmlns:xlink="http://www.w3.org/1999/xlink" x="0px" y="0px"
	 viewBox="0 0 170 161" style="enable-background:new 0 0 170 161;" xml:space="preserve">
<style type="text/css">
	.st0{fill-rule:evenodd;clip-rule:evenodd;fill:#FFFFFF;}
	.st1{fill:none;stroke:#FFFFFF;stroke-width:2.6277;stroke-linecap:round;}
	.st2{opacity:0.9;}
	.st3{fill:none;stroke:#F4AB42;stroke-width:5;}
</style>
<title>Artboard</title>
<desc>Created with Sketch.</desc>
<g id="Artboard">
	<path id="Fill-8" class="st0" d="M119.1,71c-0.4,1.3-0.8,2.5-1.1,3.6H59.1c-0.4-1.2-0.7-2.4-1.1-3.6c-4.2-13.3-9.9-31.5,0.6-38.4
		c4.1-2.7,7.9-4,11.7-4c4.2,0,7.7,1.6,10.9,2.9c2.6,1.1,5,2.2,7.4,2.2s4.8-1.1,7.4-2.2c3.1-1.4,6.7-2.9,10.9-2.9
		c3.8,0,7.7,1.3,11.7,4C129,39.5,123.3,57.7,119.1,71z M106.7,25c-4.9,0-9,1.8-12.2,3.2c-2.3,1-4.3,1.9-6,1.9s-3.7-0.9-6-1.9
		c-3.3-1.4-7.3-3.2-12.2-3.2c-4.5,0-9,1.5-13.6,4.5c-12.9,8.4-6.6,28.2-2.1,42.6c0.3,0.9,0.5,1.7,0.8,2.5H55v24h27.8v5.2H63.2v6.1
		h19.5v4.3H68v6.1h14.8v4.3h-8.9v6.1h8.9v4.3h-2.7v6.1l8.4,4.8l8.4-4.8V135h-2.7v-4.3h8.9v-6.1h-8.9v-4.3H109v-6.1H94.2V110h19.5
		v-6.1H94.2v-5.2H122v-24h-0.4c0.3-0.8,0.5-1.6,0.8-2.5c4.6-14.4,10.8-34.2-2.1-42.6C115.7,26.5,111.2,25,106.7,25z"/>
	<path id="Path-2" class="st1" d="M67,31.2c3-0.6,7.8,0.7,14.4,4.1c9.9,5,14.7,6.7,19.6,4.3"/>
	<g id="Oval" class="st2">
		<circle class="st3" cx="88.5" cy="82.5" r="69.5"/>
	</g>
</g>
</svg>
