<?xml version="1.0" encoding="UTF-8"?>
<svg width="108px" height="116px" viewBox="0 0 108 116" version="1.1" xmlns="http://www.w3.org/2000/svg" xmlns:xlink="http://www.w3.org/1999/xlink">
    <!-- Generator: Sketch 52.6 (67491) - http://www.bohemiancoding.com/sketch -->
    <title>illustrations 1</title>
    <desc>Created with Sketch.</desc>
    <defs>
        <filter x="-13.2%" y="-17.8%" width="126.5%" height="135.5%" filterUnits="objectBoundingBox" id="filter-1">
            <feOffset dx="0" dy="2" in="SourceAlpha" result="shadowOffsetOuter1"></feOffset>
            <feGaussianBlur stdDeviation="2.5" in="shadowOffsetOuter1" result="shadowBlurOuter1"></feGaussianBlur>
            <feColorMatrix values="0 0 0 0 0.615686275   0 0 0 0 0.960784314   0 0 0 0 0.831372549  0 0 0 1 0" type="matrix" in="shadowBlurOuter1" result="shadowMatrixOuter1"></feColorMatrix>
            <feMerge>
                <feMergeNode in="shadowMatrixOuter1"></feMergeNode>
                <feMergeNode in="SourceGraphic"></feMergeNode>
            </feMerge>
        </filter>
    </defs>
    <g id="Page-1" stroke="none" stroke-width="1" fill="none" fill-rule="evenodd">
        <g id="Home" transform="translate(-288.000000, -960.000000)">
            <g id="illustrations-1" transform="translate(288.000000, 955.000000)">
                <g id="Group" filter="url(#filter-1)" transform="translate(63.530247, 60.022266) rotate(34.000000) translate(-63.530247, -60.022266) translate(12.530247, 22.022266)" fill="#D7E6F4">
                    <path d="M46.5549473,71.752587 C74.4677171,71.752587 101.718569,87.0417408 101.718569,57.0989514 C101.718569,27.156162 50.0422719,0.783783784 22.1295021,0.783783784 C-5.78326765,0.783783784 0.63748787,27.156162 0.63748787,57.0989514 C0.63748787,87.0417408 18.6421775,71.752587 46.5549473,71.752587 Z" id="Oval"></path>
                </g>
                <g id="Group-12" transform="translate(20.000000, 40.000000)">
                    <path d="M43.4343867,9.29279454 C58.2484996,9.29279454 84.2945078,12.2760956 88,11.7537135 C85.9387747,11.0821664 81.4011784,9.45657168 76.5004051,6.74115886 C69.8326947,3.04612737 63.8327222,-0.312826121 56.8320492,0.0232518789 C50.3178279,0.336194075 44.9614217,4.71738481 44.2471537,5.3250041 C43.5340942,4.71738481 38.1770838,0.336194075 31.6628624,0.0232518789 C24.6621894,-0.312826121 18.6616126,3.04612737 11.9945065,6.74115886 C6.65260324,9.7007153 1.74216143,11.3658844 0,11.9114023 C4.77447709,12.5750346 28.6208781,9.29279454 43.4343867,9.29279454" id="Fill-11" fill="#00AC69"></path>
                    <path d="M84.2651523,14 C81.4751308,15.1195867 66.8789568,31.226667 43.7933428,31.226667 C20.707129,31.226667 6.88059549,15.8679735 3,14.3274941 C3.64666594,15.2944098 13.8085592,41 43.8371338,41 C73.8663082,41 85,14.2203251 85,14.2203251 C85,14.2203251 84.7378543,14.1478812 84.2651523,14" id="Fill-12" fill="#00AC69"></path>
                    <path d="M5,14 C5,14 7.75181239,14.3686543 11.879833,14.9209072 C13.9411248,15.1831909 16.3455624,15.4906457 18.9215729,15.8185003 C20.2095782,15.9671277 21.5410808,16.0778698 22.8925198,16.2658397 C24.2433546,16.4727524 25.6171463,16.589323 26.9915422,16.6840365 C28.3653339,16.8253783 29.7385215,16.9652629 31.0911687,17.1051476 C32.4426076,17.2683463 33.7747144,17.3047746 35.0633238,17.4053167 C36.3519332,17.508773 37.5976494,17.6107723 38.7793278,17.7054858 C39.9610062,17.8337134 41.0786467,17.8861701 42.1105009,17.918227 C44.1742091,17.9896265 45.8965839,18.1775965 47.1030316,18.2489959 C48.3094793,18.349538 49,18.4471658 49,18.4471658 C49,18.4471658 48.3131041,18.6074503 47.1096771,18.8158201 C45.9056459,18.9950473 44.1850835,19.3360161 42.1171463,19.5924713 C41.600011,19.6594994 41.061127,19.7294417 40.5035149,19.8022983 C39.9459029,19.8634978 39.3695628,19.8518408 38.7769112,19.8809834 C37.591004,19.910126 36.3404547,19.9407258 35.0464082,19.9713256 C33.7529657,19.9450972 32.4142135,20.0820676 31.0573374,19.9174117 C29.6992531,19.8110411 28.3200242,19.7017562 26.9407953,19.5939285 C25.5615663,19.4642437 24.1829416,19.3141592 22.8278779,19.0737324 C21.47221,18.8711911 20.1394991,18.5972504 18.8496815,18.3728521 C17.5592597,18.1644823 16.3165641,17.7812567 15.1366982,17.5014874 C13.9574363,17.1998611 12.8422122,16.9317489 11.8170035,16.579123 C9.76356547,15.9423565 8.05931459,15.283733 6.86736599,14.8130795 C6.2704855,14.5930526 5.80470123,14.3701114 5.48692882,14.2258554 C5.16915641,14.0786851 5,14 5,14" id="Fill-13" fill="#F9BF5D"></path>
                </g>
                <circle id="Oval" fill="#F9BF5D" cx="29" cy="27" r="7"></circle>
                <circle id="Oval-Copy" fill="#F9BF5D" cx="14.5" cy="11.5" r="2.5"></circle>
            </g>
        </g>
    </g>
</svg>