<?xml version="1.0" encoding="UTF-8"?>
<svg width="101px" height="100px" viewBox="0 0 101 100" version="1.1" xmlns="http://www.w3.org/2000/svg" xmlns:xlink="http://www.w3.org/1999/xlink">
    <!-- Generator: Sketch 52.6 (67491) - http://www.bohemiancoding.com/sketch -->
    <title>illustration 2</title>
    <desc>Created with Sketch.</desc>
    <defs>
        <filter x="-11.3%" y="-10.5%" width="122.6%" height="121.1%" filterUnits="objectBoundingBox" id="filter-1">
            <feOffset dx="0" dy="2" in="SourceAlpha" result="shadowOffsetOuter1"></feOffset>
            <feGaussianBlur stdDeviation="2" in="shadowOffsetOuter1" result="shadowBlurOuter1"></feGaussianBlur>
            <feColorMatrix values="0 0 0 0 0.47286252   0 0 0 0 0.953464674   0 0 0 0 0.76625337  0 0 0 1 0" type="matrix" in="shadowBlurOuter1" result="shadowMatrixOuter1"></feColorMatrix>
            <feMerge>
                <feMergeNode in="shadowMatrixOuter1"></feMergeNode>
                <feMergeNode in="SourceGraphic"></feMergeNode>
            </feMerge>
        </filter>
    </defs>
    <g id="Page-1" stroke="none" stroke-width="1" fill="none" fill-rule="evenodd">
        <g id="Home" transform="translate(-650.000000, -966.000000)">
            <g id="illustration-2" filter="url(#filter-1)" transform="translate(648.000000, 959.000000)">
                <path d="M40.3205898,101.800738 C67.6800054,101.817336 89.847037,81.7712981 89.8320407,57.0266592 C89.8170443,32.2820203 67.6256988,12.2090719 40.2662832,12.192474 C12.9068675,12.175876 45.1126674,39.1648817 26.6878754,60.1421784 C8.26308344,81.119475 12.9611742,101.78414 40.3205898,101.800738 Z" id="Oval" fill="#D7E6F4" transform="translate(52.739809, 56.996607) rotate(25.000000) translate(-52.739809, -56.996607) "></path>
                <g id="Group-11" transform="translate(15.639344, 17.404580)">
                    <path d="M52.2833055,39.1848893 L45.4862727,32.377958 C45.249076,32.138645 44.8641743,32.138645 44.6261088,32.377958 L1.91592843,75.1549351 C1.67786285,75.3925076 1.67873171,75.7780191 1.91592843,76.0164618 L8.71296121,82.8233931 C8.95015794,83.0618359 9.33592843,83.0618359 9.573994,82.8233931 L52.2833055,40.046416 C52.5205022,39.8088435 52.5205022,39.4233321 52.2833055,39.1848893" id="Fill-25" fill="#00AC69"></path>
                    <path d="M46.2280555,31.2964809 L52.9416784,38.0198702 C53.179744,38.2591832 53.5646456,38.2591832 53.8018424,38.0198702 L56.206826,35.613687 C56.4440227,35.3735038 56.4440227,34.9888626 56.206826,34.7504198 L49.493203,28.0261603 C49.2560063,27.7877176 48.869367,27.7877176 48.6313014,28.0261603 L46.2280555,30.4349542 C45.9891211,30.6725267 45.9899899,31.0580382 46.2280555,31.2964809" id="Fill-26" fill="#F9BF5D"></path>
                    <path d="M49.7031393,27.8157824 L56.4167623,34.5391718 C56.6548279,34.7784847 57.0397295,34.7784847 57.2786639,34.5391718 L59.681041,32.1329885 C59.9199754,31.8936756 59.9199754,31.5081641 59.681041,31.2697214 L52.9682869,24.5445916 C52.7310902,24.3070191 52.3453197,24.3070191 52.1063852,24.5445916 L49.7031393,26.9525153 C49.4650738,27.190958 49.4650738,27.5782099 49.7031393,27.8157824" id="Fill-27" fill="#00AC69"></path>
                    <path d="M81.8724016,1.48025954 C81.8724016,1.14261069 81.6004508,0.870229008 81.2624672,0.870229008 L79.1546311,0.870229008 C78.9921557,0.870229008 78.8375,0.933755725 78.7236803,1.04862595 C78.6089918,1.16349618 78.5455656,1.31839695 78.5455656,1.47938931 L78.5455656,8.36377099 L74.1361393,8.36551145 C73.9745328,8.36551145 73.819877,8.42903817 73.7051885,8.54303817 L56.653959,25.6221527 C56.4158934,25.8605954 56.4158934,26.2461069 56.653959,26.4836794 L58.1457787,27.9778626 C58.3838443,28.2163053 58.767877,28.2163053 59.0076803,27.9778626 L75.2613033,11.6967481 L81.2633361,11.6967481 C81.6004508,11.6967481 81.8732705,11.4243664 81.8732705,11.0867176 L81.8724016,1.48025954" id="Fill-28" fill="#00AC69"></path>
                    <path d="M40.8599596,34.118416 L34.0637957,40.9244771 C33.826599,41.1629198 33.8248613,41.5484313 34.0637957,41.786874 L75.7209268,83.5100038 C75.9589924,83.7484466 76.343894,83.7484466 76.5819596,83.5100038 L83.3772547,76.7030725 C83.6161891,76.4646298 83.6161891,76.0791183 83.3772547,75.8415458 L41.7201235,34.118416 C41.4829268,33.8791031 41.0980252,33.8791031 40.8599596,34.118416" id="Fill-29" fill="#00AC69"></path>
                    <path d="M36.4325041,29.7666183 L29.7188811,36.4908779 C29.4816844,36.7275802 29.4816844,37.1148321 29.7188811,37.3532748 L32.1229959,39.7611985 C32.3610615,39.998771 32.7459631,39.998771 32.9831598,39.7611985 L39.6976516,33.0360687 C39.9357172,32.7984962 39.9357172,32.4121145 39.6976516,32.174542 L37.2935369,29.7666183 C37.0546025,29.5281756 36.6697008,29.5281756 36.4325041,29.7666183" id="Fill-30" fill="#F9BF5D"></path>
                    <path d="M32.9492746,26.286355 C32.7120779,26.047042 32.3263074,26.047042 32.0891107,26.286355 L25.3746189,33.0106145 C25.1374221,33.248187 25.1374221,33.6336985 25.3746189,33.8730115 L27.7787336,36.2791947 C28.017668,36.5185076 28.4025697,36.5185076 28.6406352,36.2791947 L35.3542582,29.5558053 C35.5914549,29.3173626 35.5914549,28.9318511 35.3542582,28.6925382 L32.9492746,26.286355" id="Fill-31" fill="#00AC69"></path>
                    <path d="M11.3917418,13.5784008 L26.4333156,28.6446756 C26.6713811,28.8822481 27.0571516,28.8822481 27.2943484,28.6446756 L28.6002336,27.3375917 C28.8374303,27.0991489 28.8374303,26.7127672 28.6002336,26.4751947 L13.557791,11.4089199 C15.4345123,8.51801913 15.0582992,4.63070616 12.5924959,2.16099623 C9.71572541,-0.719461783 5.03521721,-0.721202241 2.15757787,2.16099623 C-0.719192623,5.04319471 -0.719192623,9.73111837 2.15757787,12.6124466 C4.62425,15.0821565 8.50541393,15.4589657 11.3917418,13.5784008" id="Fill-32" fill="#00AC69"></path>
                    <path d="M11.1612787,4.08050382 C13.1179344,6.03938931 13.1170656,9.21746565 11.1612787,11.1772214 C9.2037541,13.1369771 6.03157377,13.1369771 4.07404918,11.1772214 C2.11739344,9.21833588 2.11739344,6.04025954 4.07404918,4.08050382 C6.03157377,2.12074809 9.20462295,2.12074809 11.1612787,4.08050382" id="Fill-33" fill="#F9BF5D"></path>
                </g>
            </g>
        </g>
    </g>
</svg>