<?xml version="1.0" encoding="UTF-8"?>
<svg width="92px" height="107px" viewBox="0 0 92 107" version="1.1" xmlns="http://www.w3.org/2000/svg" xmlns:xlink="http://www.w3.org/1999/xlink">
    <!-- Generator: Sketch 52.6 (67491) - http://www.bohemiancoding.com/sketch -->
    <title>illumination 3</title>
    <desc>Created with Sketch.</desc>
    <g id="Page-1" stroke="none" stroke-width="1" fill="none" fill-rule="evenodd">
        <g id="Home" transform="translate(-1033.000000, -966.000000)">
            <g id="illumination-3" transform="translate(1021.000000, 953.000000)">
                <path d="M58.5297846,108.227689 C80.552139,108.227689 110.195667,97.0441473 82.2009032,60.3853403 C54.2061395,23.7265334 91.6905614,39.57798 58.5297846,18.3943556 C25.3690078,-2.78926876 18.6547846,38.5042323 18.6547846,63.3110223 C18.6547846,88.1178123 36.5074303,108.227689 58.5297846,108.227689 Z" id="Oval" fill="#D7E6F4" transform="translate(56.130329, 60.385340) rotate(-28.000000) translate(-56.130329, -60.385340) "></path>
                <path d="M77.8963922,55.9289683 C81.8545589,43.8537183 87.2555589,27.318885 76.1162255,20.289885 C72.0874755,17.7479683 68.2319755,16.5077183 64.3251422,16.5077183 C60.0828089,16.5077183 56.5628089,18.001885 53.7238922,19.2018017 C51.7108922,20.0579683 49.9701422,20.798635 48.5364755,20.798635 C47.1018922,20.798635 45.3519755,20.0579683 43.3371422,19.2018017 C40.5092255,18.001885 36.9791422,16.5077183 32.7468922,16.5077183 C28.8400589,16.5077183 24.9845589,17.7479683 20.9457255,20.289885 C9.80547555,27.318885 15.2183922,43.8537183 19.1655589,55.9289683 C20.5598089,60.170385 21.7597255,63.8315517 21.9733089,66.2240517 C22.3188922,70.0089683 21.9531422,74.5959683 21.5653922,79.4598017 C21.0062255,86.5997183 20.4158922,93.987135 22.0237255,99.866635 C24.7205589,109.765718 33.4087255,117.029385 33.7744755,117.335552 C34.0595589,117.570218 34.4051422,117.691218 34.7507255,117.691218 C35.0156422,117.691218 35.2897255,117.619718 35.5243922,117.476718 C36.0835589,117.150385 36.3686422,116.511468 36.2467255,115.879885 C36.2155589,115.697468 32.9091422,97.8719683 37.0506422,86.4787183 C40.4890589,77.0077183 46.3584755,72.053135 48.5364755,72.053135 C50.7135589,72.053135 56.5728922,77.0077183 60.0223089,86.4787183 C64.1518922,97.8628017 60.8555589,115.697468 60.8152255,115.879885 C60.7033922,116.511468 60.9875589,117.150385 61.5375589,117.476718 C62.0976422,117.802135 62.7888089,117.752635 63.2874755,117.335552 C63.6532255,117.029385 72.3514755,109.765718 75.0483089,99.866635 C76.6451422,93.987135 76.0648922,86.5997183 75.4956422,79.4497183 C75.1198089,74.5959683 74.7531422,70.0089683 75.0987255,66.2240517 C75.3123089,63.8315517 76.5131422,60.170385 77.8963922,55.9289683" id="Fill-9" fill="#00AC69" transform="translate(48.532594, 67.099468) rotate(18.000000) translate(-48.532594, -67.099468) "></path>
                <polyline id="Fill-10" fill="#F9BF5D" transform="translate(54.809944, 46.769814) rotate(18.000000) translate(-54.809944, -46.769814) " points="68.5443612 41.8331056 59.7461945 41.8331056 59.7461945 33.0358556 49.8746112 33.0358556 49.8746112 41.8331056 41.0755278 41.8331056 41.0755278 51.7056056 49.8746112 51.7056056 49.8746112 60.5037723 59.7461945 60.5037723 59.7461945 51.7056056 68.5443612 51.7056056 68.5443612 41.8331056"></polyline>
                <rect id="Rectangle" stroke-opacity="0" stroke="#FFFFFF" x="8.5" y="11.5" width="99" height="110"></rect>
            </g>
        </g>
    </g>
</svg>