<?xml version="1.0" encoding="UTF-8"?>
<svg width="25px" height="25px" viewBox="0 0 25 25" version="1.1" xmlns="http://www.w3.org/2000/svg" xmlns:xlink="http://www.w3.org/1999/xlink">
    <!-- Generator: Sketch 52.6 (67491) - http://www.bohemiancoding.com/sketch -->
    <title>Combined Shape</title>
    <desc>Created with Sketch.</desc>
    <g id="Page-1" stroke="none" stroke-width="1" fill="none" fill-rule="evenodd">
        <g id="Home" transform="translate(-605.000000, -3818.000000)" fill="#000000" fill-rule="nonzero">
            <g id="work-" transform="translate(605.000000, 3780.000000)">
                <path d="M12.5,38 C19.3925658,38 25,43.6074342 25,50.5 C25,57.3926316 19.3925658,63 12.5,63 C5.60736842,63 0,57.3925 0,50.5 C0,43.6075 5.60736842,38 12.5,38 Z M17.7565789,58.8482237 C18.9236184,58.1106579 19.9261184,57.1357237 20.6956579,55.9911842 L19.5648684,55.3383553 C19.2501974,55.1567105 19.1424342,54.7543421 19.3241447,54.4397368 C19.5059211,54.1251316 19.9080263,54.0172368 20.2227632,54.1989474 L21.3551316,54.8527632 C21.9592763,53.6286842 22.3169737,52.2621053 22.3629605,50.8180921 L21.2884211,50.8213816 L21.2873026,50.8213816 C21.2265132,50.8213816 21.1669737,50.8057237 21.1147368,50.7757895 C21.0067105,50.7138816 20.9396053,50.5984211 20.9392105,50.4742763 C20.9388816,50.38125 20.9748684,50.29375 21.0403947,50.2277632 C21.1057895,50.1618421 21.1930921,50.1253289 21.2861184,50.1250658 L22.3604605,50.1217763 C22.3066447,48.7000658 21.9508553,47.3545395 21.3549342,46.1474342 L20.2225658,46.80125 C20.1190789,46.8610526 20.0059211,46.8894737 19.8943421,46.8894737 C19.6669737,46.8894737 19.4459211,46.7715132 19.3239474,46.5604605 C19.1422368,46.2457895 19.25,45.8434211 19.5646711,45.6617763 L20.6954605,45.0089474 C19.9149342,43.8478947 18.8942763,42.8613158 17.7053947,42.1201974 L17.1722368,43.0501316 C17.1103947,43.1580921 16.9944079,43.2251974 16.8696053,43.2251974 C16.8085526,43.2251974 16.7504605,43.2096053 16.6969737,43.1789474 C16.5304605,43.0834868 16.4726316,42.8702632 16.5680921,42.7036842 L17.1017105,41.7728289 C15.9099342,41.1418421 14.5742763,40.7480263 13.1578289,40.6543421 L13.1578289,41.9628289 C13.1578289,42.3261184 12.8631579,42.6207237 12.4999342,42.6207237 C12.1366447,42.6207237 11.8420395,42.3261184 11.8420395,41.9628289 L11.8420395,40.6543421 C10.4043421,40.7494737 9.04986842,41.1534868 7.84467105,41.8010526 L8.38401316,42.7288158 C8.43072368,42.8092105 8.44342105,42.9029605 8.41960526,42.9928289 C8.39585526,43.0827632 8.33842105,43.1580921 8.25789474,43.2048684 C8.15065789,43.2673026 8.01572368,43.2666447 7.90927632,43.2057237 C7.85592105,43.1750658 7.81315789,43.1323684 7.78197368,43.0788158 L7.24328947,42.1522368 C6.07631579,42.8896711 5.07368421,43.8645395 4.30440789,45.0090789 L5.43519737,45.6619079 C5.74980263,45.8435526 5.85763158,46.2459211 5.67592105,46.5605921 C5.55407895,46.7716447 5.33289474,46.8896053 5.10552632,46.8896053 C4.99394737,46.8896053 4.88085526,46.8611842 4.77730263,46.8013816 L3.64493421,46.1476316 C3.04078947,47.3717763 2.68309211,48.7382895 2.63710526,50.1823026 L3.71263158,50.1790132 C3.90401316,50.1790132 4.06026316,50.3347368 4.06085526,50.5261842 C4.06118421,50.6192105 4.02519737,50.7067763 3.95967105,50.7727632 C3.89414474,50.8386842 3.80684211,50.8751974 3.71381579,50.8754605 L2.63947368,50.87875 C2.69328947,52.3004605 3.04921053,53.6459211 3.645,54.8530921 L4.77736842,54.1993421 C5.09197368,54.0175658 5.49434211,54.1254605 5.67598684,54.44 C5.85769737,54.7546711 5.74986842,55.1570395 5.43526316,55.3386842 L4.30447368,55.9915132 C5.085,57.1525658 6.10565789,58.1390132 7.29440789,58.8801974 L7.82743421,57.9503947 C7.88947368,57.8423684 8.00552632,57.7751974 8.13026316,57.7751974 C8.19125,57.7751974 8.24934211,57.7907895 8.30289474,57.8215132 C8.38355263,57.8677632 8.44138158,57.9426316 8.46572368,58.0323684 C8.49006579,58.1223026 8.47796053,58.2160526 8.43171053,58.2967105 L7.89809211,59.2275658 C9.08986842,59.8585526 10.4255921,60.2524342 11.8421053,60.3461184 L11.8421053,59.0375 C11.8421053,58.6742763 12.1367105,58.3796053 12.5,58.3796053 C12.8632237,58.3796053 13.1578947,58.6742763 13.1578947,59.0375 L13.1578947,60.3463158 C14.5956579,60.2510526 15.9501974,59.8471711 17.1552632,59.1996053 L16.6158553,58.2718421 C16.5690789,58.1913158 16.5566447,58.0975 16.5801974,58.0075658 C16.6040132,57.9175658 16.6613816,57.8423684 16.7419079,57.7955921 C16.7958553,57.7642105 16.8544079,57.7482895 16.9161184,57.7482895 C17.0400658,57.7482895 17.1557237,57.8147368 17.2178947,57.9216447 L17.7565789,58.8482237 Z M17.3058547,47.3544311 C17.7003425,47.1516654 18.1974349,47.2835293 18.4159085,47.6489413 C18.6345772,48.0143533 18.4923092,48.4749435 18.0978864,48.6776489 L13.8427884,50.8650004 C13.719897,51.4484187 13.1657804,51.8888889 12.5000862,51.8888889 C11.834392,51.8888889 11.2803404,51.4484789 11.157384,50.8650004 L6.90215591,48.6776489 C6.50766806,48.4748832 6.36540014,48.014293 6.58413381,47.6489413 C6.80306254,47.2835896 7.30028499,47.1516654 7.69457778,47.3544311 L11.8651473,49.4982295 C12.0550113,49.4058223 12.2707539,49.3529322 12.5001512,49.3529322 C12.7296785,49.3529322 12.9453561,49.4058826 13.1352201,49.4982295 L17.3058547,47.3544311 Z" id="Combined-Shape"></path>
            </g>
        </g>
    </g>
</svg>