<svg width="36" height="36" viewBox="0 0 36 36" fill="none" xmlns="http://www.w3.org/2000/svg">
<rect width="36" height="36" fill="#121111"/>
<path fill-rule="evenodd" clip-rule="evenodd" d="M29 18.5001C29 24.2989 24.2989 29 18.4999 29C12.7008 29 8 24.2989 8 18.5001C8 12.7011 12.7008 8 18.4999 8C24.2989 8 29 12.7011 29 18.5001Z" stroke="white" stroke-width="1.99314"/>
<path fill-rule="evenodd" clip-rule="evenodd" d="M16.6005 18.5528V25.0138C16.6005 25.1067 16.6745 25.1819 16.7659 25.1819H19.1271C19.2184 25.1819 19.2924 25.1067 19.2924 25.0138V18.4476H21.0042C21.0902 18.4476 21.1619 18.3805 21.1691 18.2935L21.3337 16.315C21.342 16.2167 21.2659 16.1325 21.1689 16.1325H19.2924V14.7288C19.2924 14.3998 19.5549 14.1331 19.8787 14.1331H21.1978C21.2895 14.1331 21.3635 14.0578 21.3635 13.965V11.9866C21.3635 11.8935 21.2895 11.8182 21.1978 11.8182H18.9689C17.6609 11.8182 16.6005 12.8958 16.6005 14.2251V16.1325H15.4198C15.3284 16.1325 15.2544 16.2077 15.2544 16.3008V18.2793C15.2544 18.3721 15.3284 18.4476 15.4198 18.4476H16.6005V18.5528Z" fill="white"/>
</svg>
