<svg width="56" height="56" viewBox="0 0 56 56" fill="none" xmlns="http://www.w3.org/2000/svg">
<circle cx="28" cy="28.0002" r="27" stroke="#EFA72D" stroke-width="2"/>
<path d="M28.0019 29.1474C31.4693 29.1474 34.2802 26.3063 34.2802 22.8016C34.2802 19.2969 31.4693 16.4558 28.0019 16.4558C24.5345 16.4558 21.7236 19.2969 21.7236 22.8016C21.7236 26.3063 24.5345 29.1474 28.0019 29.1474Z" fill="white"/>
<path d="M28.0007 5.04736C15.3091 5.04736 5.04785 15.3086 5.04785 28.0002C5.04785 40.6918 15.3091 50.953 28.0007 50.953C40.6923 50.953 50.9535 40.6918 50.9535 28.0002C50.9535 15.3086 40.6923 5.04736 28.0007 5.04736ZM37.1818 29.4854L28.0007 45.4174L18.8196 29.4854C17.4694 27.5952 16.6593 25.2999 16.6593 22.8021C16.6593 16.5238 21.7224 11.3931 28.0007 11.3931C34.279 11.3931 39.3421 16.5238 39.3421 22.8021C39.3421 25.2999 38.532 27.5952 37.1818 29.4854Z" fill="white"/>
</svg>
