<svg width="36" height="36" viewBox="0 0 36 36" fill="none" xmlns="http://www.w3.org/2000/svg">
<rect width="36" height="36" fill="#121111"/>
<path fill-rule="evenodd" clip-rule="evenodd" d="M23.9896 11.8889C23.3203 11.8889 22.7778 12.4314 22.7778 13.1003C22.7778 13.7696 23.3203 14.3121 23.9896 14.3121C24.6585 14.3121 25.201 13.7696 25.201 13.1003C25.201 12.4314 24.6585 11.8889 23.9896 11.8889Z" fill="white"/>
<path fill-rule="evenodd" clip-rule="evenodd" d="M18.5341 21.4062C16.7363 21.4062 15.2737 19.9435 15.2737 18.1457C15.2737 16.3479 16.7363 14.8853 18.5341 14.8853C20.3323 14.8853 21.7946 16.3479 21.7946 18.1457C21.7946 19.9435 20.3323 21.4062 18.5341 21.4062ZM18.5341 13.0555C15.7275 13.0555 13.4443 15.3391 13.4443 18.1457C13.4443 20.9523 15.7275 23.2359 18.5341 23.2359C21.3407 23.2359 23.6243 20.9523 23.6243 18.1457C23.6243 15.3391 21.3407 13.0555 18.5341 13.0555Z" fill="white"/>
<path fill-rule="evenodd" clip-rule="evenodd" d="M14.2082 9.94444C11.857 9.94444 9.94444 11.857 9.94444 14.2082V22.4604C9.94444 24.8117 11.857 26.7242 14.2082 26.7242H22.4601C24.8113 26.7242 26.7242 24.8117 26.7242 22.4604V14.2082C26.7242 11.857 24.8113 9.94444 22.4601 9.94444H14.2082ZM14.2082 28.6687C10.7852 28.6687 8 25.8838 8 22.4604V14.2082C8 10.7848 10.7852 8 14.2082 8H22.4601C25.8834 8 28.6687 10.7848 28.6687 14.2082V22.4604C28.6687 25.8838 25.8834 28.6687 22.4601 28.6687H14.2082Z" fill="white"/>
</svg>
