<?xml version="1.0" encoding="UTF-8"?>
<svg width="18px" height="23px" viewBox="0 0 18 23" version="1.1" xmlns="http://www.w3.org/2000/svg" xmlns:xlink="http://www.w3.org/1999/xlink">
    <!-- Generator: Sketch 52.6 (67491) - http://www.bohemiancoding.com/sketch -->
    <title>Group 3</title>
    <desc>Created with Sketch.</desc>
    <g id="Page-1" stroke="none" stroke-width="1" fill="none" fill-rule="evenodd">
        <g id="Home" transform="translate(-164.000000, -3845.000000)" fill="#000000" fill-rule="nonzero">
            <g id="Adress" transform="translate(162.000000, 3780.000000)">
                <g id="Group-3" transform="translate(2.000000, 65.000000)">
                    <path d="M1.46461255,12.4701462 C0.693558405,11.2315517 0.25,9.78030527 0.25,8.22876603 C0.25,3.68414404 4.05557963,0 8.75,0 C13.4444204,0 17.25,3.68414404 17.25,8.22876603 C17.25,9.52398028 16.9408932,10.7493025 16.3901992,11.8393679 L16.4373092,11.8378739 C15.4293867,14.0131577 14.4324265,15.7473213 13.4464286,17.0403648 C12.4604308,18.3334082 10.9480401,20.0931485 8.9092567,22.3195856 C7.28235275,20.7458145 5.84515412,19.1035225 4.59766083,17.3927096 C3.3886105,15.7346173 2.34426107,14.0937629 1.46461255,12.4701462 Z M8.75,12.9375 C11.5114237,12.9375 13.75,10.7921978 13.75,8.14583333 C13.75,5.49946891 11.5114237,3.35416667 8.75,3.35416667 C5.98857625,3.35416667 3.75,5.49946891 3.75,8.14583333 C3.75,10.7921978 5.98857625,12.9375 8.75,12.9375 Z" id="Combined-Shape"></path>
                </g>
            </g>
        </g>
    </g>
</svg>