<?xml version="1.0" encoding="UTF-8"?>
<svg width="225px" height="47px" viewBox="0 0 225 47" version="1.1" xmlns="http://www.w3.org/2000/svg" xmlns:xlink="http://www.w3.org/1999/xlink">
    <!-- Generator: Sketch 52.6 (67491) - http://www.bohemiancoding.com/sketch -->
    <title>Logo</title>
    <desc>Created with Sketch.</desc>
    <g id="Page-1" stroke="none" stroke-width="1" fill="none" fill-rule="evenodd">
        <g id="Home" transform="translate(-121.000000, -68.000000)">
            <g id="Logo" transform="translate(121.000000, 68.000000)">
                <path d="M56.9343443,41.6666667 L53.2324525,41.6666667 L53.2324525,25.8846154 L45.7018918,25.8846154 L45.7018918,41.6666667 L42,41.6666667 L42,23 L56.9343443,23 L56.9343443,41.6666667 Z M60.3115659,34.6025641 C60.3115659,32.5341777 60.8820573,30.8397502 62.023057,29.5192308 C63.1640568,28.1987113 64.744529,27.5384615 66.7645212,27.5384615 C68.7929652,27.5384615 70.3818891,28.1965746 71.5313407,29.5128205 C72.6807924,30.8290664 73.2555095,32.5256306 73.2555095,34.6025641 L73.2555095,34.8717949 C73.2555095,36.9572754 72.6829053,38.6559763 71.5376796,39.9679487 C70.3924539,41.2799211 68.8098687,41.9358974 66.7898766,41.9358974 C64.7614326,41.9358974 63.1746216,41.2799211 62.0293959,39.9679487 C60.8841702,38.6559763 60.3115659,36.9572754 60.3115659,34.8717949 L60.3115659,34.6025641 Z M64.00078,34.8717949 C64.00078,36.1367585 64.2205248,37.1517056 64.660021,37.9166667 C65.0995172,38.6816278 65.809462,39.0641026 66.7898766,39.0641026 C67.7449356,39.0641026 68.4443157,38.679491 68.8880379,37.9102564 C69.33176,37.1410218 69.5536177,36.1282114 69.5536177,34.8717949 L69.5536177,34.6025641 C69.5536177,33.3717887 69.3296471,32.3675253 68.881699,31.5897436 C68.433751,30.8119619 67.7280321,30.4230769 66.7645212,30.4230769 C65.8094621,30.4230769 65.110082,30.8140987 64.6663599,31.5961538 C64.2226378,32.378209 64.00078,33.3803358 64.00078,34.6025641 L64.00078,34.8717949 Z M88.7145904,35.1153846 C88.7145904,37.1666769 88.2455197,38.8162331 87.3073644,40.0641026 C86.369209,41.3119721 85.0591919,41.9358974 83.3772738,41.9358974 C82.6588665,41.9358974 82.0207614,41.8012834 81.4629393,41.5320513 C80.9051172,41.2628192 80.4275948,40.867524 80.0303579,40.3461538 L80.0303579,47 L76.3411438,47 L76.3411438,27.7948718 L79.675382,27.7948718 L79.8909031,29.4358974 C80.2965919,28.8290568 80.7846789,28.3611128 81.3551788,28.0320513 C81.9256786,27.7029898 82.5912518,27.5384615 83.3519183,27.5384615 C85.0507402,27.5384615 86.369209,28.209395 87.3073644,29.5512821 C88.2455197,30.8931691 88.7145904,32.6581087 88.7145904,34.8461538 L88.7145904,35.1153846 Z M85.0126986,34.8461538 C85.0126986,33.538455 84.7971796,32.4786365 84.3661353,31.6666667 C83.9350909,30.8546968 83.2758565,30.4487179 82.3884123,30.4487179 C81.8305902,30.4487179 81.3551807,30.5641014 80.9621697,30.7948718 C80.5691587,31.0256422 80.2585578,31.3546987 80.0303579,31.7820513 L80.0303579,37.8589744 C80.2585578,38.2521387 80.5691587,38.551281 80.9621697,38.7564103 C81.3551807,38.9615395 81.8390419,39.0641026 82.4137677,39.0641026 C83.3096638,39.0641026 83.9667853,38.7094053 84.3851518,38 C84.8035184,37.2905947 85.0126986,36.3290659 85.0126986,35.1153846 L85.0126986,34.8461538 Z M91.7368361,27.7948718 L95.4387279,27.7948718 L95.4387279,38.7948718 L99.9773486,38.7948718 L99.9773486,27.7948718 L103.67924,27.7948718 L103.67924,38.7948718 L105.656963,38.7948718 L105.656963,46.2564103 L101.967749,46.2564103 L101.967749,41.6666667 L91.7368361,41.6666667 L91.7368361,27.7948718 Z M114.485601,41.9358974 C112.507868,41.9358974 110.927396,41.2948782 109.744137,40.0128205 C108.560878,38.7307628 107.969257,37.102574 107.969257,35.1282051 L107.969257,34.6153846 C107.969257,32.5555453 108.529184,30.858981 109.649054,29.525641 C110.768924,28.192301 112.271218,27.5299145 114.155981,27.5384615 C116.006936,27.5384615 117.443729,28.1025585 118.466403,29.2307692 C119.489076,30.35898 120.000406,31.8846058 120.000406,33.8076923 L120.000406,35.8461538 L111.810604,35.8461538 L111.785249,35.9230769 C111.852863,36.8376114 112.155012,37.5897406 112.691705,38.1794872 C113.228397,38.7692337 113.957358,39.0641026 114.87861,39.0641026 C115.69844,39.0641026 116.378803,38.9807701 116.919722,38.8141026 C117.46064,38.6474351 118.052261,38.3846172 118.694601,38.025641 L119.696141,40.3333333 C119.138318,40.7948741 118.407244,41.1773489 117.502896,41.4807692 C116.598549,41.7841896 115.592793,41.9358974 114.485601,41.9358974 Z M114.155981,30.4230769 C113.471381,30.4230769 112.93047,30.6880315 112.533233,31.2179487 C112.135997,31.7478659 111.890897,32.4444401 111.797926,33.3076923 L111.835959,33.3717949 L116.37458,33.3717949 L116.37458,33.0384615 C116.37458,32.2435858 116.190755,31.6089767 115.8231,31.1346154 C115.455444,30.660254 114.899743,30.4230769 114.155981,30.4230769 Z M134.838279,27.7948718 L134.838279,41.6666667 L131.149065,41.6666667 L131.149065,30.6923077 L127.852859,30.6923077 L127.852859,33.7051282 C127.852859,36.4401846 127.438725,38.4508483 126.610444,39.7371795 C125.782162,41.0235107 124.366499,41.6666667 122.36341,41.6666667 L121.767558,41.6666667 L121.729525,38.7179487 L122.122534,38.7051282 C122.967719,38.7051282 123.517081,38.3547044 123.770636,37.6538462 C124.024192,36.9529879 124.150968,35.6367618 124.150968,33.7051282 L124.150968,27.7948718 L134.838279,27.7948718 Z M149.891673,27.7948718 L149.891673,41.6666667 L146.215136,41.6666667 L146.215136,36.8076923 L143.983859,36.8076923 L141.296184,41.6666667 L137.556259,41.6666667 L140.586232,36.1923077 C139.749499,35.8162374 139.105055,35.2991486 138.652881,34.6410256 C138.200707,33.9829027 137.974624,33.2350469 137.974624,32.3974359 C137.974624,31.0470018 138.504969,29.942312 139.565677,29.0833333 C140.626384,28.2243547 142.056838,27.7948718 143.857082,27.7948718 L149.891673,27.7948718 Z M141.676516,32.5 C141.676516,32.9786349 141.860341,33.3952974 142.227996,33.75 C142.595651,34.1047026 143.117545,34.2820513 143.793693,34.2820513 L146.215136,34.2820513 L146.215136,30.6538462 L143.857082,30.6538462 C143.16403,30.6538462 142.627346,30.8418785 142.247013,31.2179487 C141.866679,31.594019 141.676516,32.0213651 141.676516,32.5 Z M165.642341,41.6666667 L161.940449,41.6666667 L161.940449,36.2820513 L157.427184,36.2820513 L157.427184,41.6666667 L153.725292,41.6666667 L153.725292,27.7948718 L157.427184,27.7948718 L157.427184,33.4102564 L161.940449,33.4102564 L161.940449,27.7948718 L165.642341,27.7948718 L165.642341,41.6666667 Z M177.298108,41.6666667 C177.162879,41.3504258 177.046667,41.0170958 176.949471,40.6666667 C176.852275,40.3162376 176.782548,39.9572668 176.740289,39.5897436 C176.359956,40.2649606 175.859191,40.8247841 175.23798,41.2692308 C174.616769,41.7136774 173.87513,41.9358974 173.013042,41.9358974 C171.576227,41.9358974 170.469051,41.5619696 169.691481,40.8141026 C168.913911,40.0662356 168.525132,39.047015 168.525132,37.7564103 C168.525132,36.3974291 169.0428,35.3440208 170.078151,34.5961538 C171.113503,33.8482869 172.624249,33.474359 174.610433,33.474359 L176.6769,33.474359 L176.6769,32.3717949 C176.6769,31.7051249 176.50364,31.188036 176.157114,30.8205128 C175.810588,30.4529896 175.299259,30.2692308 174.623111,30.2692308 C174.02303,30.2692308 173.560298,30.4166652 173.234902,30.7115385 C172.909505,31.0064117 172.74681,31.4145273 172.74681,31.9358974 L169.171695,31.9230769 L169.159017,31.8461538 C169.099854,30.6752078 169.602732,29.6645342 170.667665,28.8141026 C171.732598,27.963671 173.131358,27.5384615 174.863988,27.5384615 C176.503646,27.5384615 177.834793,27.9593975 178.857467,28.8012821 C179.880141,29.6431666 180.39147,30.8418726 180.39147,32.3974359 L180.39147,38.1282051 C180.39147,38.777781 180.440067,39.388886 180.537264,39.9615385 C180.63446,40.5341909 180.788704,41.1025613 181,41.6666667 L177.298108,41.6666667 Z M173.913159,39.1666667 C174.563952,39.1666667 175.142895,39.0042751 175.650006,38.6794872 C176.157117,38.3546992 176.499411,37.9786346 176.6769,37.5512821 L176.6769,35.5897436 L174.610433,35.5897436 C173.824411,35.5897436 173.228565,35.7884596 172.822876,36.1858974 C172.417187,36.5833353 172.214346,37.0640997 172.214346,37.6282051 C172.214346,38.0897459 172.366477,38.4615371 172.670743,38.7435897 C172.97501,39.0256424 173.389144,39.1666667 173.913159,39.1666667 Z" id="Порцеляна" fill="#00AC69" fill-rule="nonzero"></path>
                <path d="M51.6668514,13.3795066 L51.6864057,13.4364326 C51.7124782,14.7330868 51.2431805,15.8178324 50.2784986,16.6907021 C49.3138168,17.5635717 48.0395432,18 46.4556399,18 C44.845664,18 43.5339119,17.4465583 42.5203441,16.3396584 C41.5067763,15.2327585 41,13.828598 41,12.1271347 L41,9.66982922 C41,7.96836594 41.5067763,6.56262415 42.5203441,5.45256167 C43.5339119,4.34249919 44.845664,3.78747628 46.4556399,3.78747628 C48.0656157,3.78747628 49.3464073,4.20334815 50.2980529,5.03510436 C51.2496985,5.86686058 51.7124782,6.96900009 51.6864057,8.34155598 L51.6668514,8.39848197 L49.8189734,8.39848197 C49.8189734,7.4307352 49.5256624,6.66540446 48.9390315,6.10246679 C48.3524006,5.53952913 47.5246117,5.25806452 46.4556399,5.25806452 C45.3801499,5.25806452 44.5230299,5.67868017 43.8842541,6.5199241 C43.2454782,7.36116803 42.9260951,8.40480085 42.9260951,9.65085389 L42.9260951,12.1271347 C42.9260951,13.385838 43.2454782,14.4357959 43.8842541,15.2770398 C44.5230299,16.1182838 45.3801499,16.5388994 46.4556399,16.5388994 C47.5246117,16.5388994 48.3524006,16.2590161 48.9390315,15.699241 C49.5256624,15.1394659 49.8189734,14.3662288 49.8189734,13.3795066 L51.6668514,13.3795066 Z M63.2008172,8.98671727 L59.7103809,8.98671727 L59.7103809,17.800759 L57.7842859,17.800759 L57.7842859,8.98671727 L54.3427353,8.98671727 L54.3427353,7.53510436 L63.2008172,7.53510436 L63.2008172,8.98671727 Z M65.7495983,12.573055 C65.7495983,11.0550209 66.1732698,9.80424274 67.0206255,8.82068311 C67.8679812,7.83712348 69.0184123,7.34535104 70.4719532,7.34535104 C71.9385304,7.34535104 73.097109,7.83554222 73.9477238,8.81593928 C74.7983386,9.79633634 75.2236396,11.0486957 75.2236396,12.573055 L75.2236396,12.7817837 C75.2236396,14.3124681 74.7999681,15.5648275 73.9526124,16.5388994 C73.1052567,17.5129713 71.9515666,18 70.4915075,18 C69.0314484,18 67.8761288,17.5113901 67.0255141,16.5341556 C66.1748993,15.5569211 65.7495983,14.306143 65.7495983,12.7817837 L65.7495983,12.573055 Z M67.6756934,12.7817837 C67.6756934,13.8697082 67.9119717,14.7678649 68.3845355,15.4762808 C68.8570992,16.1846968 69.5594162,16.5388994 70.4915075,16.5388994 C71.4105625,16.5388994 72.107991,16.1846968 72.5838138,15.4762808 C73.0596366,14.7678649 73.2975445,13.8697082 73.2975445,12.7817837 L73.2975445,12.573055 C73.2975445,11.4977808 73.0580071,10.6027866 72.5789253,9.88804554 C72.0998434,9.17330446 71.3975264,8.81593928 70.4719532,8.81593928 C69.5528982,8.81593928 68.8570992,9.17330446 68.3845355,9.88804554 C67.9119717,10.6027866 67.6756934,11.4977808 67.6756934,12.573055 L67.6756934,12.7817837 Z M84.7239618,15.3529412 L84.7826246,15.3529412 L88.2437295,7.53510436 L90.648904,7.53510436 L90.648904,17.800759 L88.7228089,17.800759 L88.7228089,10.6755218 L88.6641461,10.6565465 L85.4181382,17.800759 L84.0884482,17.800759 L80.7837774,10.4952562 L80.7251146,10.5142315 L80.7251146,17.800759 L78.7990196,17.800759 L78.7990196,7.53510436 L81.2824112,7.53510436 L84.7239618,15.3529412 Z M101.263819,17.800759 C101.198638,17.490827 101.148123,17.2172687 101.112274,16.9800759 C101.076424,16.7428831 101.055241,16.5041125 101.048722,16.2637571 C100.690226,16.7571182 100.222558,17.1698276 99.6457039,17.5018975 C99.0688502,17.8339675 98.4480085,18 97.7831602,18 C96.6815978,18 95.8424023,17.7264417 95.2655486,17.1793169 C94.6886949,16.6321921 94.4002724,15.8779302 94.4002724,14.9165085 C94.4002724,13.9361115 94.8092783,13.1691995 95.6273025,12.6157495 C96.4453267,12.0622996 97.5550201,11.7855787 98.9564161,11.7855787 L101.048722,11.7855787 L101.048722,10.7703985 C101.048722,10.16951 100.8597,9.69355014 100.481649,9.34250474 C100.103598,8.99145935 99.5691198,8.81593928 98.878199,8.81593928 C98.2589776,8.81593928 97.7554603,8.96932168 97.3676321,9.27609108 C96.9798039,9.58286048 96.7858927,9.9512945 96.7858927,10.3814042 L94.9477918,10.3814042 L94.9282375,10.3244782 C94.8891288,9.57811139 95.2525086,8.89500626 96.0183878,8.27514231 C96.784267,7.65527837 97.773377,7.34535104 98.9857475,7.34535104 C100.185082,7.34535104 101.149749,7.64104701 101.879779,8.23244782 C102.609808,8.82384862 102.974818,9.67614877 102.974818,10.7893738 L102.974818,15.7324478 C102.974818,16.0993061 102.994372,16.4535087 103.03348,16.7950664 C103.072589,17.1366241 103.144287,17.4718516 103.248577,17.800759 L101.263819,17.800759 Z M98.066697,16.4345351 C98.764136,16.4345351 99.3931252,16.2605963 99.9536836,15.9127135 C100.514242,15.5648306 100.879251,15.1663527 101.048722,14.7172676 L101.048722,13.0474383 L98.8879762,13.0474383 C98.1123198,13.0474383 97.4914781,13.2371898 97.0254324,13.6166983 C96.5593868,13.9962068 96.3263675,14.4421227 96.3263675,14.9544592 C96.3263675,15.4098694 96.473023,15.7703972 96.7663384,16.0360531 C97.0596539,16.3017091 97.4931024,16.4345351 98.066697,16.4345351 Z M114.890091,8.98671727 L111.399655,8.98671727 L111.399655,17.800759 L109.47356,17.800759 L109.47356,8.98671727 L106.032009,8.98671727 L106.032009,7.53510436 L114.890091,7.53510436 L114.890091,8.98671727 Z M117.438873,12.573055 C117.438873,11.0550209 117.862544,9.80424274 118.7099,8.82068311 C119.557255,7.83712348 120.707687,7.34535104 122.161227,7.34535104 C123.627805,7.34535104 124.786383,7.83554222 125.636998,8.81593928 C126.487613,9.79633634 126.912914,11.0486957 126.912914,12.573055 L126.912914,12.7817837 C126.912914,14.3124681 126.489242,15.5648275 125.641887,16.5388994 C124.794531,17.5129713 123.640841,18 122.180782,18 C120.720723,18 119.565403,17.5113901 118.714788,16.5341556 C117.864174,15.5569211 117.438873,14.306143 117.438873,12.7817837 L117.438873,12.573055 Z M119.364968,12.7817837 C119.364968,13.8697082 119.601246,14.7678649 120.07381,15.4762808 C120.546373,16.1846968 121.24869,16.5388994 122.180782,16.5388994 C123.099837,16.5388994 123.797265,16.1846968 124.273088,15.4762808 C124.748911,14.7678649 124.986819,13.8697082 124.986819,12.7817837 L124.986819,12.573055 C124.986819,11.4977808 124.747281,10.6027866 124.268199,9.88804554 C123.789118,9.17330446 123.086801,8.81593928 122.161227,8.81593928 C121.242172,8.81593928 120.546373,9.17330446 120.07381,9.88804554 C119.601246,10.6027866 119.364968,11.4977808 119.364968,12.573055 L119.364968,12.7817837 Z M138.808633,7.53510436 L138.808633,17.800759 L136.882538,17.800759 L136.882538,9.01518027 L133.304108,9.01518027 L133.304108,11.9184061 C133.304108,13.9424516 133.027092,15.4288378 132.473052,16.3776091 C131.919011,17.3263805 130.973898,17.800759 129.637683,17.800759 L129.090164,17.800759 L129.129272,16.2068311 L129.530135,16.1973435 C130.214538,16.1973435 130.691983,15.8731848 130.962485,15.2248577 C131.232987,14.5765306 131.368236,13.4743911 131.368236,11.9184061 L131.368236,7.53510436 L138.808633,7.53510436 Z M141.983151,12.573055 C141.983151,11.0550209 142.406823,9.80424274 143.254178,8.82068311 C144.101534,7.83712348 145.251965,7.34535104 146.705506,7.34535104 C148.172083,7.34535104 149.330662,7.83554222 150.181277,8.81593928 C151.031891,9.79633634 151.457192,11.0486957 151.457192,12.573055 L151.457192,12.7817837 C151.457192,14.3124681 151.033521,15.5648275 150.186165,16.5388994 C149.338809,17.5129713 148.185119,18 146.72506,18 C145.265001,18 144.109682,17.5113901 143.259067,16.5341556 C142.408452,15.5569211 141.983151,14.306143 141.983151,12.7817837 L141.983151,12.573055 Z M143.909246,12.7817837 C143.909246,13.8697082 144.145524,14.7678649 144.618088,15.4762808 C145.090652,16.1846968 145.792969,16.5388994 146.72506,16.5388994 C147.644115,16.5388994 148.341544,16.1846968 148.817367,15.4762808 C149.293189,14.7678649 149.531097,13.8697082 149.531097,12.7817837 L149.531097,12.573055 C149.531097,11.4977808 149.29156,10.6027866 148.812478,9.88804554 C148.333396,9.17330446 147.631079,8.81593928 146.705506,8.81593928 C145.786451,8.81593928 145.090652,9.17330446 144.618088,9.88804554 C144.145524,10.6027866 143.909246,11.4977808 143.909246,12.573055 L143.909246,12.7817837 Z M161.661468,9.01518027 L156.860896,9.01518027 L156.860896,17.800759 L154.934801,17.800759 L154.934801,7.53510436 L161.661468,7.53510436 L161.661468,9.01518027 Z M166.439435,17.800759 L164.51334,17.800759 L164.51334,7.53510436 L166.439435,7.53510436 L166.439435,17.800759 Z M166.439435,4.90702087 L164.51334,4.90702087 L164.51334,3 L166.439435,3 L166.439435,4.90702087 Z M179,7.53510436 L179,17.800759 L177.073905,17.800759 L177.073905,13.8159393 L174.463411,13.8159393 L171.960465,17.800759 L169.887713,17.800759 L172.566647,13.540797 C171.89528,13.3067667 171.378727,12.9367514 171.016971,12.43074 C170.655216,11.9247287 170.474341,11.3396618 170.474341,10.6755218 C170.474341,9.75205104 170.834461,8.99778914 171.554714,8.41271347 C172.274966,7.82763781 173.267335,7.53510436 174.53185,7.53510436 L179,7.53510436 Z M172.410213,10.6944972 C172.410213,11.1499074 172.569904,11.5388978 172.889292,11.8614801 C173.20868,12.1840623 173.687755,12.345351 174.326531,12.345351 L177.073905,12.345351 L177.073905,8.98671727 L174.53185,8.98671727 C173.834412,8.98671727 173.306452,9.15591229 172.947955,9.4943074 C172.589458,9.83270251 172.410213,10.2327618 172.410213,10.6944972 Z" id="Стоматологія" fill="#00AC69" fill-rule="nonzero"></path>
                <g>
                    <path d="M28.3768529,18.6486351 C28.2165156,19.1574807 28.0621803,19.6476612 27.9168479,20.1200654 L4.08276081,20.1200654 C3.9374284,19.6481056 3.78309309,19.1579251 3.62275585,18.6495239 C1.92206652,13.2588716 -0.407539188,5.87638877 3.86026074,3.08462637 C5.5107911,2.00471827 7.06700544,1.47942965 8.61636043,1.47942965 C10.3076182,1.47942965 11.7446514,2.11137586 13.0132018,2.66910618 C14.0549651,3.126845 15.0388527,3.55925264 16.0000187,3.55925264 C16.9616134,3.55925264 17.9450723,3.126845 18.9864069,2.66910618 C20.2549574,2.11137586 21.6924193,1.47942965 23.3841057,1.47942965 C24.933032,1.47942965 26.4892463,2.00471827 28.1397767,3.08462637 C32.4075766,5.87638877 30.0779709,13.2584272 28.3768529,18.6486351 Z M23.3841057,0 C21.4030406,0 19.754225,0.724382795 18.4299424,1.30655547 C17.4863535,1.72163126 16.6709486,2.07982299 16.0000187,2.07982299 C15.3290888,2.07982299 14.513684,1.72163126 13.5705238,1.30655547 C12.2458124,0.724382795 10.5974256,0 8.61636043,0 C6.78920189,0 4.98433622,0.599504534 3.09844452,1.83317732 C-2.10994336,5.2408873 0.419440828,13.2566496 2.26589129,19.1094848 C2.37521213,19.4556775 2.48067459,19.7912045 2.58313608,20.1200654 L2.43951851,20.1200654 L2.43951851,29.8610142 L13.6802733,29.8610142 L13.6802733,31.9572802 L5.77058887,31.9572802 L5.77058887,34.4232926 L13.6802733,34.4232926 L13.6802733,36.1493679 L7.69763665,36.1493679 L7.69763665,38.6158247 L13.6802733,38.6158247 L13.6802733,40.3419 L10.0696846,40.3419 L10.0696846,42.8079123 L13.6802733,42.8079123 L13.6802733,44.5344321 L12.5900659,44.5344321 L12.5900659,47 L19.4099716,47 L19.4099716,44.5344321 L18.3193354,44.5344321 L18.3193354,42.8079123 L21.9299242,42.8079123 L21.9299242,40.3419 L18.3193354,40.3419 L18.3193354,38.6158247 L24.3019721,38.6158247 L24.3019721,36.1493679 L18.3193354,36.1493679 L18.3193354,34.4232926 L26.2290199,34.4232926 L26.2290199,31.9572802 L18.3193354,31.9572802 L18.3193354,29.8610142 L29.5600902,29.8610142 L29.5600902,20.1200654 L29.4164726,20.1200654 C29.5189341,19.7907601 29.6239679,19.4552331 29.7337174,19.108596 C31.5805966,13.2562051 34.1099808,5.24044289 28.9015929,1.83317732 C27.0152725,0.599504534 25.2108355,0 23.3841057,0 Z" id="Fill-8" fill="#00AC69"></path>
                    <path d="M6,3 C7.78607332,3.25269046 10.0401283,4.04578957 12.7621648,5.37929734 C16.8452197,7.37955901 18.0178749,7.31004869 20,6.34467302" id="Path-2" stroke="#00AC69" stroke-width="1.06436844" stroke-linecap="round" stroke-linejoin="round" fill-rule="nonzero"></path>
                </g>
                <text id="КBM" font-family="OpenSans-Light, Open Sans" font-size="20" font-weight="300" letter-spacing="0.2952383" fill="#00AC69">
                    <tspan x="185" y="42">КBM</tspan>
                </text>
            </g>
        </g>
    </g>
</svg>