<?xml version="1.0" encoding="UTF-8"?>
<svg width="224px" height="241px" viewBox="0 0 124 141" version="1.1" xmlns="http://www.w3.org/2000/svg" xmlns:xlink="http://www.w3.org/1999/xlink">
    <!-- Generator: Sketch 52.4 (67378) - http://www.bohemiancoding.com/sketch -->
    <title>Artboard</title>
    <desc>Created with Sketch.</desc>
    <g id="Artboard" stroke="none" stroke-width="1" fill="none" fill-rule="evenodd">
        <path d="M85.0553555,55.0264186 C84.659523,56.2822928 84.2785077,57.4921 83.9197183,58.6580338 L25.0793157,58.6580338 C24.7205264,57.4931968 24.3395111,56.2833896 23.9436785,55.0286122 C19.7451017,41.7240235 13.9938876,23.5034276 24.5300187,16.6131204 C28.6047655,13.9478153 32.4466697,12.6513583 36.2716398,12.6513583 C40.4469324,12.6513583 43.994608,14.2110553 47.126342,15.5875812 C49.6981952,16.7173196 52.1271677,17.7845384 54.5000462,17.7845384 C56.8739831,17.7845384 59.3018972,16.7173196 61.872692,15.5875812 C65.004426,14.2110553 68.5531601,12.6513583 72.729511,12.6513583 C76.5534227,12.6513583 80.3953269,13.9478153 84.4700737,16.6131204 C95.0062048,23.5034276 89.2549907,41.7229267 85.0553555,55.0264186 Z M72.729511,9 C67.8387564,9 63.7682431,10.7878384 60.4989202,12.2246901 C58.1694351,13.2491325 56.1564043,14.1331802 54.5000462,14.1331802 C52.8436881,14.1331802 50.8306573,13.2491325 48.5022306,12.2246901 C45.2318493,10.7878384 41.1623944,9 36.2716398,9 C31.7608422,9 27.3050801,10.4796282 22.6492849,13.5244376 C9.79107733,21.9349559 16.0354945,41.7185393 20.5939191,56.1638348 C20.8638049,57.0182679 21.1241654,57.8463771 21.3771172,58.6580338 L21.0225613,58.6580338 L21.0225613,82.6995244 L48.7731748,82.6995244 L48.7731748,87.8732874 L29.2461413,87.8732874 L29.2461413,93.9596157 L48.7731748,93.9596157 L48.7731748,98.2197165 L34.0035405,98.2197165 L34.0035405,104.307142 L48.7731748,104.307142 L48.7731748,108.567243 L39.8595338,108.567243 L39.8595338,114.653571 L48.7731748,114.653571 L48.7731748,118.914768 L46.0817251,118.914768 L46.0817251,125 L62.9183673,125 L62.9183673,118.914768 L60.2258593,118.914768 L60.2258593,114.653571 L69.1395003,114.653571 L69.1395003,108.567243 L60.2258593,108.567243 L60.2258593,104.307142 L74.9954936,104.307142 L74.9954936,98.2197165 L60.2258593,98.2197165 L60.2258593,93.9596157 L79.7528928,93.9596157 L79.7528928,87.8732874 L60.2258593,87.8732874 L60.2258593,82.6995244 L87.9764727,82.6995244 L87.9764727,58.6580338 L87.6219168,58.6580338 C87.8748687,57.8452803 88.1341707,57.0171711 88.4051149,56.1616411 C92.9645979,41.7174425 99.2090151,21.9338591 86.3508075,13.5244376 C81.693954,10.4796282 77.2392503,9 72.729511,9 Z" id="Fill-8" fill="#FFFFFF"></path>
        <path d="M31,15 C35.3376066,15.6317261 40.8117401,17.6144739 47.4224003,20.9482434 C57.3383907,25.9488975 60.1862676,25.7751217 65,23.3616825" id="Path-2" stroke="#FFFFFF" stroke-width="2.62765957" fill-rule="nonzero"></path>
    </g>
</svg>