<?xml version="1.0" encoding="UTF-8"?>
<svg width="17px" height="18px" viewBox="0 0 17 18" version="1.1" xmlns="http://www.w3.org/2000/svg" xmlns:xlink="http://www.w3.org/1999/xlink">
    <!-- Generator: Sketch 52.6 (67491) - http://www.bohemiancoding.com/sketch -->
    <title>Fill 103 Copy</title>
    <desc>Created with Sketch.</desc>
    <g id="Page-1" stroke="none" stroke-width="1" fill="none" fill-rule="evenodd">
        <g id="Home" transform="translate(-165.000000, -3929.000000)" fill="#000000">
            <g id="Adress" transform="translate(162.000000, 3780.000000)">
                <path d="M9.38625704,154.29998 C10.4022525,153.132827 9.30024684,151.610223 8.62291655,150.570395 C8.24124631,149.970903 7.6768044,149.116759 6.88658572,149.005349 C6.12862087,148.925771 5.44591494,149.753388 4.94598068,150.204334 C3.75258921,151.281298 3.09138583,152.676576 3.01612691,154.273454 L3,154.480359 C3.11288838,155.440607 3.22577676,156.347804 3.56981755,157.255 C3.88160451,158.109144 4.31703112,158.899625 4.81696539,159.658275 C5.8867172,161.255152 7.1284894,162.798978 8.59603836,164.077541 C10.0313335,165.334883 11.638649,166.459595 13.5523759,166.868098 C15.3478387,167.228855 17.0949208,166.852183 18.5087134,165.70625 C19.0140233,165.292442 19.9601355,164.692949 19.9977649,163.976742 C20.04077,163.260534 19.4548256,162.682263 18.960267,162.247233 C17.8905151,161.308205 16.3262047,159.743159 14.8801583,160.883786 C14.3103407,161.345342 13.713645,162.188875 12.9556802,162.30559 C12.2084666,162.427611 11.4827556,161.891782 10.9398162,161.467362 C9.73029782,160.491198 8.54228199,159.164887 7.8219466,157.780219 C7.52628655,157.159506 7.25750469,156.369025 7.69830695,155.753617 C8.14986047,155.148819 8.90782532,154.862336 9.38625704,154.29998" id="Fill-103-Copy"></path>
            </g>
        </g>
    </g>
</svg>