<?xml version="1.0" encoding="UTF-8"?>
<svg width="14px" height="16px" viewBox="0 0 14 16" version="1.1" xmlns="http://www.w3.org/2000/svg" xmlns:xlink="http://www.w3.org/1999/xlink">
    <!-- Generator: Sketch 52.6 (67491) - http://www.bohemiancoding.com/sketch -->
    <title>ic call</title>
    <desc>Created with Sketch.</desc>
    <g id="Page-1" stroke="none" stroke-width="1" fill="none" fill-rule="evenodd">
        <g id="Home" transform="translate(-1247.000000, -8.000000)" fill="#FFFFFE">
            <g id="Call" transform="translate(1063.000000, 0.000000)">
                <path d="M189.259271,12.7110938 C190.095973,11.6736242 189.188439,10.3201981 188.630637,9.39590709 C188.31632,8.86302502 187.851486,8.10378597 187.200718,8.00475479 C186.576511,7.93401823 186.014283,8.66967843 185.602572,9.07051892 C184.619779,10.0278203 184.075259,11.268068 184.013281,12.6875149 L184,12.8714299 C184.092967,13.7249844 184.185934,14.5313812 184.469262,15.3377779 C184.726027,16.097017 185.084614,16.7996668 185.496324,17.474022 C186.377297,18.8934689 187.399932,20.2657581 188.608502,21.4022588 C189.79051,22.5198964 191.114182,23.5196397 192.690192,23.8827541 C194.168808,24.2034265 195.607582,23.8686068 196.771882,22.8500003 C197.188019,22.4821702 197.96717,21.9492882 197.998159,21.3126591 C198.033575,20.6760301 197.551033,20.1620111 197.143749,19.775318 C196.262777,18.9406266 194.974522,17.5494743 193.78366,18.5633649 C193.314398,18.973637 192.823002,19.7234445 192.198795,19.8271914 C191.583443,19.9356542 190.985799,19.4593613 190.538672,19.0820997 C189.542598,18.2143979 188.564232,17.0354553 187.971015,15.8046392 C187.72753,15.2528941 187.50618,14.5502442 187.869194,14.0032149 C188.241062,13.465617 188.865268,13.2109654 189.259271,12.7110938" id="ic-call"></path>
            </g>
        </g>
    </g>
</svg>